<svg width="32" height="32" viewBox="0 0 32 32" fill="none" xmlns="http://www.w3.org/2000/svg">
<path d="M22.6133 8.22667C25.2799 10.08 27.1199 13.0267 27.4933 16.4267" stroke="white" stroke-linecap="round" stroke-linejoin="round"/>
<path d="M4.65332 16.4933C4.99999 13.1067 6.81332 10.16 9.45332 8.29333" stroke="white" stroke-linecap="round" stroke-linejoin="round"/>
<path d="M10.92 27.92C12.4667 28.7067 14.2267 29.1467 16.08 29.1467C17.8667 29.1467 19.5467 28.7467 21.0534 28.0133" stroke="white" stroke-linecap="round" stroke-linejoin="round"/>
<path d="M16.08 10.2667C18.1271 10.2667 19.7866 8.60713 19.7866 6.56C19.7866 4.51286 18.1271 2.85333 16.08 2.85333C14.0328 2.85333 12.3733 4.51286 12.3733 6.56C12.3733 8.60713 14.0328 10.2667 16.08 10.2667Z" stroke="white" stroke-linecap="round" stroke-linejoin="round"/>
<path d="M6.43994 26.56C8.48708 26.56 10.1466 24.9005 10.1466 22.8533C10.1466 20.8062 8.48708 19.1467 6.43994 19.1467C4.39281 19.1467 2.73328 20.8062 2.73328 22.8533C2.73328 24.9005 4.39281 26.56 6.43994 26.56Z" stroke="white" stroke-linecap="round" stroke-linejoin="round"/>
<path d="M25.5599 26.56C27.6071 26.56 29.2666 24.9005 29.2666 22.8533C29.2666 20.8062 27.6071 19.1467 25.5599 19.1467C23.5128 19.1467 21.8533 20.8062 21.8533 22.8533C21.8533 24.9005 23.5128 26.56 25.5599 26.56Z" stroke="white" stroke-linecap="round" stroke-linejoin="round"/>
</svg>
