<svg width="32" height="32" viewBox="0 0 32 32" fill="none" xmlns="http://www.w3.org/2000/svg">
<path d="M16.6666 29.3335H5.43992C3.89325 29.3335 2.62659 28.0935 2.62659 26.5735V6.78679C2.62659 3.29345 5.22659 1.70679 8.41325 3.26679L14.3333 6.17345C15.6133 6.80012 16.6666 8.46679 16.6666 9.88012V29.3335Z" stroke="white" stroke-linecap="round" stroke-linejoin="round"/>
<path d="M29.2933 20.0802V25.1202C29.2933 28.0002 27.96 29.3335 25.08 29.3335H16.6666V13.8935L17.2933 14.0268L23.2933 15.3735L26 15.9735C27.76 16.3602 29.2 17.2668 29.28 19.8268C29.2933 19.9068 29.2933 19.9868 29.2933 20.0802Z" stroke="white" stroke-linecap="round" stroke-linejoin="round"/>
<path d="M7.33325 12.0001H11.9599" stroke="white" stroke-linecap="round" stroke-linejoin="round"/>
<path d="M7.33325 17.3335H11.9599" stroke="white" stroke-linecap="round" stroke-linejoin="round"/>
<path d="M23.2933 15.3735V19.6668C23.2933 21.3201 21.9467 22.6668 20.2933 22.6668C18.64 22.6668 17.2933 21.3201 17.2933 19.6668V14.0268L23.2933 15.3735Z" stroke="white" stroke-linecap="round" stroke-linejoin="round"/>
<path d="M29.28 19.8268C29.2 21.4001 27.8933 22.6668 26.2933 22.6668C24.64 22.6668 23.2933 21.3201 23.2933 19.6668V15.3735L26 15.9735C27.76 16.3601 29.2 17.2668 29.28 19.8268Z" stroke="white" stroke-linecap="round" stroke-linejoin="round"/>
</svg>
