<svg width="32" height="32" viewBox="0 0 32 32" fill="none" xmlns="http://www.w3.org/2000/svg">
<path d="M13.4 3.37333L5.37336 8.61333C2.80003 10.2933 2.80003 14.0533 5.37336 15.7333L13.4 20.9733C14.84 21.92 17.2134 21.92 18.6534 20.9733L26.64 15.7333C29.2 14.0533 29.2 10.3067 26.64 8.62666L18.6534 3.38666C17.2134 2.42666 14.84 2.42666 13.4 3.37333Z" stroke="white" stroke-linecap="round" stroke-linejoin="round"/>
<path d="M7.50674 17.44L7.49341 23.6933C7.49341 25.3867 8.80008 27.2 10.4001 27.7333L14.6534 29.1467C15.3867 29.3867 16.6001 29.3867 17.3467 29.1467L21.6001 27.7333C23.2001 27.2 24.5067 25.3867 24.5067 23.6933V17.5067" stroke="white" stroke-linecap="round" stroke-linejoin="round"/>
<path d="M28.5334 20V12" stroke="white" stroke-linecap="round" stroke-linejoin="round"/>
</svg>
