<svg width="16" height="17" viewBox="0 0 16 17" fill="none" xmlns="http://www.w3.org/2000/svg">
<path fill-rule="evenodd" clip-rule="evenodd" d="M3.40298 7.02476C3.89634 6.83098 4.43522 6.72648 4.99992 6.72648C7.27037 6.72648 9.16659 8.45236 9.16659 10.6531C9.16659 10.7935 9.15864 10.9323 9.14317 11.0689C9.134 11.1498 9.1222 11.23 9.10784 11.3094C9.04352 11.665 8.92791 12.0043 8.76875 12.3199L8.7799 12.3199C8.8698 12.3199 8.95804 12.3441 9.03533 12.3901L11.8287 14.0501L11.8322 14.0522C11.9421 14.1188 12.0943 14.0339 12.0769 13.8868L12.0768 13.8864L11.817 11.7812C11.7943 11.5977 11.8748 11.4166 12.0262 11.3105C13.3329 10.3946 14.1666 8.94772 14.1666 7.32658C14.1666 4.60124 11.7901 2.33325 8.7799 2.33325C5.88159 2.33325 3.57072 4.43583 3.40298 7.02476ZM2.39869 7.58633C2.39476 7.49913 2.39323 7.41265 2.39323 7.32658C2.39323 3.98525 5.28339 1.33325 8.7799 1.33325C12.2764 1.33325 15.1666 3.98525 15.1666 7.32658C15.1666 9.19895 14.2537 10.8573 12.8453 11.9487L13.0695 13.7653L13.0696 13.7668C13.1851 14.7253 12.1525 15.4132 11.3162 14.9088L8.64036 13.3186C8.45179 13.3151 8.26517 13.3044 8.08055 13.2866C7.35124 14.0517 6.3011 14.5346 5.1409 14.5709L3.51776 15.5348C2.85629 15.9369 2.04982 15.3796 2.13667 14.6414L2.13721 14.6368L2.13723 14.6368L2.26738 13.6113C1.39203 12.9 0.833252 11.8423 0.833252 10.6531C0.833252 9.40166 1.44959 8.29737 2.39869 7.58633ZM3.18153 8.25934C2.35649 8.78977 1.83325 9.66854 1.83325 10.6531C1.83325 11.5954 2.31446 12.4409 3.085 12.9757C3.2381 13.082 3.3194 13.2645 3.29594 13.4494L3.15126 14.5894L4.74461 13.6432C4.82187 13.5973 4.91006 13.5731 4.99992 13.5731C6.02777 13.5731 6.93159 13.1236 7.49424 12.4416L7.49902 12.4358L7.49906 12.4359C7.82262 12.0555 8.04274 11.6017 8.1276 11.1097C8.15328 10.9607 8.16656 10.8082 8.16656 10.6532C8.16656 9.06733 6.78278 7.7266 4.9999 7.7266C4.32276 7.7266 3.7044 7.91881 3.19289 8.25215C3.18913 8.2546 3.18534 8.257 3.18153 8.25934Z" fill="url(#paint0_linear_152_1122)"/>
<defs>
<linearGradient id="paint0_linear_152_1122" x1="0.45606" y1="1.33325" x2="16.7587" y2="12.8918" gradientUnits="userSpaceOnUse">
<stop stop-color="#4FFFCA"/>
<stop offset="1" stop-color="#DFFF82"/>
</linearGradient>
</defs>
</svg>
