<svg width="16" height="17" viewBox="0 0 16 17" fill="none" xmlns="http://www.w3.org/2000/svg">
<path fill-rule="evenodd" clip-rule="evenodd" d="M2 3C1.72386 3 1.5 3.22386 1.5 3.5C1.5 3.77614 1.72386 4 2 4H14C14.2761 4 14.5 3.77614 14.5 3.5C14.5 3.22386 14.2761 3 14 3H2ZM2 6.33333C1.72386 6.33333 1.5 6.55719 1.5 6.83333C1.5 7.10948 1.72386 7.33333 2 7.33333H8.31333C8.58948 7.33333 8.81333 7.10948 8.81333 6.83333C8.81333 6.55719 8.58948 6.33333 8.31333 6.33333H2ZM1.5 10.1667C1.5 9.89052 1.72386 9.66667 2 9.66667H14C14.2761 9.66667 14.5 9.89052 14.5 10.1667C14.5 10.4428 14.2761 10.6667 14 10.6667H2C1.72386 10.6667 1.5 10.4428 1.5 10.1667ZM2 13C1.72386 13 1.5 13.2239 1.5 13.5C1.5 13.7761 1.72386 14 2 14H8.31333C8.58948 14 8.81333 13.7761 8.81333 13.5C8.81333 13.2239 8.58948 13 8.31333 13H2Z" fill="url(#paint0_linear_152_1224)"/>
<defs>
<linearGradient id="paint0_linear_152_1224" x1="1.15789" y1="3" x2="14.2096" y2="13.9383" gradientUnits="userSpaceOnUse">
<stop stop-color="#4FFFCA"/>
<stop offset="1" stop-color="#DFFF82"/>
</linearGradient>
</defs>
</svg>
