<svg width="32" height="32" viewBox="0 0 32 32" fill="none" xmlns="http://www.w3.org/2000/svg">
<path d="M21.8933 10.6C25.1467 13.8534 25.1467 19.1333 21.8933 22.3867C18.64 25.64 13.36 25.64 10.1066 22.3867C6.85329 19.1333 6.85329 13.8534 10.1066 10.6C13.36 7.3467 18.64 7.3467 21.8933 10.6Z" stroke="white" stroke-linecap="round" stroke-linejoin="round"/>
<path d="M11 28.8534C8.33333 27.7867 5.99999 25.8534 4.45332 23.1734C2.93332 20.5467 2.42665 17.6267 2.78665 14.84" stroke="white" stroke-linecap="round" stroke-linejoin="round"/>
<path d="M7.80005 5.97333C10.0667 4.19999 12.9067 3.14667 16 3.14667C19.0267 3.14667 21.8134 4.17332 24.0534 5.87998" stroke="white" stroke-linecap="round" stroke-linejoin="round"/>
<path d="M21 28.8534C23.6667 27.7867 26 25.8534 27.5467 23.1734C29.0667 20.5467 29.5733 17.6267 29.2133 14.84" stroke="white" stroke-linecap="round" stroke-linejoin="round"/>
</svg>
