<svg width="16" height="17" viewBox="0 0 16 17" fill="none" xmlns="http://www.w3.org/2000/svg">
<path fill-rule="evenodd" clip-rule="evenodd" d="M1.83337 1.83325C1.83337 1.55711 1.60952 1.33325 1.33337 1.33325C1.05723 1.33325 0.833374 1.55711 0.833374 1.83325V13.1666C0.833374 14.5494 1.95057 15.6666 3.33337 15.6666H14.6667C14.9429 15.6666 15.1667 15.4427 15.1667 15.1666C15.1667 14.8904 14.9429 14.6666 14.6667 14.6666H3.33337C2.50285 14.6666 1.83337 13.9971 1.83337 13.1666V1.83325ZM14.3798 5.49186C14.5594 5.28215 14.535 4.9665 14.3253 4.78686C14.1156 4.60721 13.8 4.63159 13.6203 4.84131L10.555 8.41977L10.5544 8.42045C10.2369 8.78723 9.67404 8.80681 9.3336 8.46637L8.70124 7.83401C7.94517 7.07005 6.70794 7.13072 6.01496 7.93312L6.0136 7.93471L2.9536 11.508C2.77398 11.7178 2.79841 12.0334 3.00815 12.213C3.2179 12.3926 3.53354 12.3682 3.71315 12.1585L6.77179 8.58674L6.77239 8.58603C7.0925 8.21619 7.65387 8.19673 7.99102 8.53799L7.99101 8.53799L7.99315 8.54013L8.62649 9.17348L8.96143 8.83853L8.62649 9.17348C9.37917 9.92616 10.6158 9.87929 11.3118 9.07339L11.3131 9.07186L14.3798 5.49186Z" fill="url(#paint0_linear_246_280)"/>
<defs>
<linearGradient id="paint0_linear_246_280" x1="0.456181" y1="1.33325" x2="16.7567" y2="12.8926" gradientUnits="userSpaceOnUse">
<stop stop-color="#4FFFCA"/>
<stop offset="1" stop-color="#DFFF82"/>
</linearGradient>
</defs>
</svg>
