<svg width="32" height="32" viewBox="0 0 32 32" fill="none" xmlns="http://www.w3.org/2000/svg">
<path d="M4 12.1467V19.84C4 22.6667 4 22.6667 6.66667 24.4667L14 28.7067C15.1067 29.3467 16.9067 29.3467 18 28.7067L25.3333 24.4667C28 22.6667 28 22.6667 28 19.8533V12.1467C28 9.33333 28 9.33333 25.3333 7.53333L18 3.29333C16.9067 2.65333 15.1067 2.65333 14 3.29333L6.66667 7.53333C4 9.33333 4 9.33333 4 12.1467Z" stroke="white" stroke-linecap="round" stroke-linejoin="round"/>
<path d="M16 20C18.2091 20 20 18.2091 20 16C20 13.7909 18.2091 12 16 12C13.7909 12 12 13.7909 12 16C12 18.2091 13.7909 20 16 20Z" stroke="white" stroke-linecap="round" stroke-linejoin="round"/>
</svg>
