<svg width="17" height="16" viewBox="0 0 17 16" fill="none" xmlns="http://www.w3.org/2000/svg">
<path fill-rule="evenodd" clip-rule="evenodd" d="M2.80026 3.35361C2.51034 3.64352 2.33337 4.16739 2.33337 5.19339V10.8067C2.33337 11.4362 2.49098 12.0098 2.83077 12.4174C3.15718 12.809 3.70644 13.1134 4.64004 13.1134H8.85337C9.87555 13.1134 10.4 12.9366 10.691 12.6462C10.9818 12.3559 11.16 11.8317 11.16 10.8067V10.1027L11.16 10.1001V5.89342L11.16 5.89083V5.19339C11.16 4.16739 10.9831 3.64352 10.6932 3.35361C10.4032 3.06369 9.87937 2.88672 8.85337 2.88672H4.64004C3.61404 2.88672 3.09018 3.06369 2.80026 3.35361ZM11.3974 13.3539C11.9386 12.8138 12.1298 12.0254 12.1566 11.0592L13.225 11.8086L13.2256 11.809C13.7521 12.1804 14.3733 12.3504 14.9105 12.0713C15.4477 11.7923 15.6667 11.1859 15.6667 10.5401V5.46009C15.6667 4.81378 15.4475 4.20846 14.9115 3.92855C14.3754 3.64859 13.7543 3.81522 13.227 4.18352L13.2262 4.18408L12.1565 4.93444C12.1292 3.97197 11.9394 3.18566 11.4003 2.6465C10.8135 2.05975 9.93404 1.88672 8.85337 1.88672H4.64004C3.55937 1.88672 2.6799 2.05975 2.09315 2.6465C1.5064 3.23325 1.33337 4.11272 1.33337 5.19339V10.8067C1.33337 11.5839 1.52577 12.4137 2.06265 13.0577C2.6129 13.7178 3.46698 14.1134 4.64004 14.1134H8.85337C9.9312 14.1134 10.8101 13.9402 11.3974 13.3539ZM13.8005 10.9907L12.16 9.84007V6.15344L13.7997 5.00332L13.8001 5.00305C14.1793 4.73832 14.3847 4.7816 14.4486 4.81496C14.5126 4.84839 14.6667 4.99306 14.6667 5.46009V10.5401C14.6667 11.0076 14.5124 11.1512 14.4496 11.1839C14.387 11.2164 14.1818 11.2599 13.8017 10.9916L13.8005 10.9907ZM7.66671 6.33333C7.66671 6.05719 7.89056 5.83333 8.16671 5.83333C8.44285 5.83333 8.66671 6.05719 8.66671 6.33333C8.66671 6.60948 8.44285 6.83333 8.16671 6.83333C7.89056 6.83333 7.66671 6.60948 7.66671 6.33333ZM8.16671 4.83333C7.33828 4.83333 6.66671 5.50491 6.66671 6.33333C6.66671 7.16176 7.33828 7.83333 8.16671 7.83333C8.99513 7.83333 9.66671 7.16176 9.66671 6.33333C9.66671 5.50491 8.99513 4.83333 8.16671 4.83333Z" fill="url(#paint0_linear_152_1136)"/>
<defs>
<linearGradient id="paint0_linear_152_1136" x1="0.956181" y1="1.88672" x2="15.4424" y2="13.9295" gradientUnits="userSpaceOnUse">
<stop stop-color="#4FFFCA"/>
<stop offset="1" stop-color="#DFFF82"/>
</linearGradient>
</defs>
</svg>
